<svg xmlns="http://www.w3.org/2000/svg" width="40" height="40" viewBox="0 0 40 40" fill="none"><g><g></g><g><g transform="translate(0.5,0.5)" style="visibility: visible;"><rect x="2.4" y="1.2" width="27" height="27" fill="none" stroke="white" pointer-events="stroke" visibility="hidden" stroke-width="9"></rect><rect x="2.4" y="1.2" width="27" height="27" fill="none" stroke="none" pointer-events="all"></rect><ellipse cx="15.9" cy="14.7" rx="13.5" ry="13.5" fill="#ffffff" stroke="#000000" stroke-width="1.3" pointer-events="all"></ellipse><path d="M 9.15 14.7 C 9.67 13.29 11.02 12.35 12.53 12.35 C 14.03 12.35 15.38 13.29 15.9 14.7 C 16.42 16.11 17.77 17.05 19.27 17.05 C 20.78 17.05 22.13 16.11 22.65 14.7" fill="none" stroke="white" stroke-width="9.3" stroke-miterlimit="10" pointer-events="stroke" visibility="hidden"></path><path d="M 9.15 14.7 C 9.67 13.29 11.02 12.35 12.53 12.35 C 14.03 12.35 15.38 13.29 15.9 14.7 C 16.42 16.11 17.77 17.05 19.27 17.05 C 20.78 17.05 22.13 16.11 22.65 14.7" fill="none" stroke="#000000" stroke-width="1.3" stroke-miterlimit="10" pointer-events="all"></path></g></g><g></g><g></g></g></svg>